<svg xmlns="http://www.w3.org/2000/svg" viewBox="0 0 29.99 29.99"><defs><style>.cls-1{fill:#fff;}.cls-1,.cls-2{stroke:#8dc47c;stroke-miterlimit:10;stroke-width:0.5px;}.cls-2{fill:#8dc47c;}</style></defs><g id="Camada_2" data-name="Camada 2"><g id="Marcas_de_corte" data-name="Marcas de corte"><rect class="cls-1" x="0.25" y="0.25" width="29.49" height="29.49" rx="4.21"/><polygon class="cls-2" points="26.91 8.99 26.91 11.82 23.58 11.82 23.58 21.49 20.6 21.49 20.6 11.82 17.27 11.82 17.27 8.99 26.91 8.99"/><path class="cls-2" d="M13.63,11.43v.71a4.42,4.42,0,0,0-.61-.32,4.37,4.37,0,0,0-1.24-.39,4.88,4.88,0,0,0-1.76,0,4.67,4.67,0,0,0-1.17.36.11.11,0,0,0-.07,0,5.06,5.06,0,0,0,.07,9.23,1.78,1.78,0,0,0,.36.14,4.77,4.77,0,0,0,1.69.3,5.06,5.06,0,0,0,2.72-.79,4.23,4.23,0,0,1-.34.79,2.48,2.48,0,0,1-.23.36,2.12,2.12,0,0,1-.86.62,3.61,3.61,0,0,1-2.79-.18A4.72,4.72,0,0,1,8.85,22l-.28-.19L7,23.43a5,5,0,0,0,1.84,1.15h0a7.25,7.25,0,0,0,4,.05,5.6,5.6,0,0,0,.81-.3A4.29,4.29,0,0,0,15.29,23a4.91,4.91,0,0,0,.79-1.52,7.13,7.13,0,0,0,.33-1.5V11.43Zm-.13,5.46h0a2.33,2.33,0,0,1-1.8,1.8,0,0,0,0,1,0,0,2.54,2.54,0,0,1-.49.05,2.35,2.35,0,1,1,2.35-2.34A2.42,2.42,0,0,1,13.5,16.89Z"/><circle class="cls-2" cx="4.72" cy="9.68" r="1.64"/><circle class="cls-2" cx="14.91" cy="6.99" r="1.89"/><circle class="cls-2" cx="9.69" cy="6.79" r="0.97"/></g></g></svg>