<svg xmlns="http://www.w3.org/2000/svg" viewBox="0 0 86.1 13.78"><defs><style>.cls-1{fill:#8dc37c;}.cls-2{fill:#8dc47c;stroke:#8dc47c;stroke-miterlimit:10;stroke-width:0.5px;}.cls-3{fill:#4bbac3;}</style></defs><g id="Camada_2" data-name="Camada 2"><g id="Marcas_de_corte" data-name="Marcas de corte"><path class="cls-1" d="M2.51,7a3.32,3.32,0,0,1,.75-2.23A2.41,2.41,0,0,1,5.17,3.9a2.42,2.42,0,0,1,1.39.42V4H8.48V9.77A3,3,0,0,1,7.62,12a3.22,3.22,0,0,1-2.34.83,3.1,3.1,0,0,1-2.58-1l1.21-1.21a.93.93,0,0,0,.44.33,2.09,2.09,0,0,0,.74.12,1.56,1.56,0,0,0,1.08-.35,1.26,1.26,0,0,0,.39-1V9.69a2.42,2.42,0,0,1-1.39.42,2.41,2.41,0,0,1-1.91-.88A3.31,3.31,0,0,1,2.51,7Zm2.22.93a.92.92,0,0,0,.76.37A1,1,0,0,0,6.26,8,1.44,1.44,0,0,0,6.56,7a1.45,1.45,0,0,0-.3-.94.91.91,0,0,0-.77-.38.92.92,0,0,0-.76.37,1.5,1.5,0,0,0-.3.95A1.39,1.39,0,0,0,4.73,7.94Z"/><path class="cls-1" d="M12.25,10H10.33V4h1.92v.34a3.06,3.06,0,0,1,1.66-.45V5.7A2.34,2.34,0,0,0,12.68,6a.79.79,0,0,0-.43.72Z"/><path class="cls-1" d="M15.91,4.75A2.75,2.75,0,0,1,18,3.9a2.87,2.87,0,0,1,3,3,3.7,3.7,0,0,1-.07.76H17a.88.88,0,0,0,.44.58,1.78,1.78,0,0,0,.91.22A1.84,1.84,0,0,0,19.64,8L20.73,9a2.44,2.44,0,0,1-1,.81,3.45,3.45,0,0,1-1.41.28A3.15,3.15,0,0,1,16,9.21a3.1,3.1,0,0,1-.91-2.29A3,3,0,0,1,15.91,4.75ZM17,6.43h2.11A1,1,0,0,0,18,5.58.94.94,0,0,0,17,6.43Z"/><path class="cls-1" d="M22.86,6.91a3.22,3.22,0,0,1,1.94-.52h.93V6.17a.51.51,0,0,0-.25-.44,1.31,1.31,0,0,0-.69-.15,1.71,1.71,0,0,0-1.27.48L22.28,5a3.11,3.11,0,0,1,2.61-1.1,3.27,3.27,0,0,1,2,.56A1.9,1.9,0,0,1,27.65,6v4H25.73V9.75a3.13,3.13,0,0,1-1.52.36,2.25,2.25,0,0,1-1.51-.46,1.59,1.59,0,0,1-.55-1.29A1.7,1.7,0,0,1,22.86,6.91Zm1.44,1.6a.9.9,0,0,0,.57.16,1,1,0,0,0,.62-.18A.55.55,0,0,0,25.73,8V7.59h-1a.77.77,0,0,0-.47.14.45.45,0,0,0-.18.37A.49.49,0,0,0,24.3,8.51Z"/><path class="cls-1" d="M28.29,3.41V1.61h6.84v1.8h-2.4V10h-2V3.41Z"/><path class="cls-1" d="M36.36,4.75a2.75,2.75,0,0,1,2.09-.85,2.89,2.89,0,0,1,3,3,3.7,3.7,0,0,1-.07.76H37.43a.85.85,0,0,0,.44.58,1.78,1.78,0,0,0,.91.22A1.84,1.84,0,0,0,40.09,8L41.18,9a2.47,2.47,0,0,1-1,.81,3.37,3.37,0,0,1-1.4.28,3.15,3.15,0,0,1-2.32-.9,3.07,3.07,0,0,1-.91-2.29A3,3,0,0,1,36.36,4.75Zm1.07,1.68h2.11a1,1,0,0,0-1.06-.85A.94.94,0,0,0,37.43,6.43Z"/><path class="cls-1" d="M42.6,9.11l1.2-1.2a2,2,0,0,0,1.47.61,1.26,1.26,0,0,0,.48-.08c.13,0,.2-.11.2-.17s-.11-.15-.33-.21l-.79-.19a5.16,5.16,0,0,1-.94-.31,1.86,1.86,0,0,1-.79-.64,1.8,1.8,0,0,1-.32-1.08,1.74,1.74,0,0,1,.62-1.42,2.56,2.56,0,0,1,1.72-.52,3.26,3.26,0,0,1,2.52,1l-1.2,1.2a1.3,1.3,0,0,0-.53-.44,1.58,1.58,0,0,0-.73-.18,1.12,1.12,0,0,0-.44.08c-.12,0-.17.12-.17.19s.1.15.32.21l.79.22a6.89,6.89,0,0,1,.94.31,1.91,1.91,0,0,1,.79.63,1.66,1.66,0,0,1,.32,1,1.71,1.71,0,0,1-.66,1.42,2.92,2.92,0,0,1-1.81.51A3.54,3.54,0,0,1,42.6,9.11Z"/><path class="cls-1" d="M51.62,4h1.51V5.69H51.62V8.1c0,.26.22.39.65.39a2.84,2.84,0,0,0,.86-.12V10a3.57,3.57,0,0,1-1.16.16,2.38,2.38,0,0,1-1.63-.55,1.81,1.81,0,0,1-.64-1.43V5.69h-.84V4h.84V2.69h1.92Z"/><circle class="cls-2" cx="1.25" cy="3.18" r="1"/><circle class="cls-2" cx="7.44" cy="1.54" r="1.15"/><circle class="cls-2" cx="4.27" cy="1.42" r="0.59"/><path class="cls-1" d="M31.52,13.39H29.29V11.16h2.23v.53h-1.7v1.17H31v-.33h-.42V12h.95Z"/><path class="cls-1" d="M38.46,11.16v2.23h-.52V13H36.76v.43h-.52V11.16Zm-1.7.53v.75h1.18v-.75Z"/><path class="cls-1" d="M46.26,11.16v2.23h-.53v-1.7H45v1.7h-.52v-1.7h-.75v1.7h-.53V11.16Z"/><path class="cls-1" d="M53.2,11.16v.53H51.5V12h1.7v.52H51.5v.33h1.7v.53H51V11.16Z"/><path class="cls-3" d="M59.73,12.68H58.4V10.22L58.05,10h-.4v2.73H56.31V1.1h3.42V8.85l-.58.51.58.51Zm-2.08-3.9h.4l.35-.27V2.27h-.75Z"/><path class="cls-3" d="M60.15,1.1h3.44V10h-2.1v1.56h.76v-.69h1.34v1.86H60.15Zm1.34,7.68h.76V2.27h-.76Z"/><path class="cls-3" d="M64,2.27V1.1h3.13V2.27h-.9V12.68H64.9V2.27Z"/><path class="cls-3" d="M71,1.1V7.89H69.66V2.27H68.9V8.78h1.15V10H68.9v1.56h.76v-.69H71v1.86H67.56V1.1Z"/><path class="cls-3" d="M71.42,1.1h3.42V7.89H73.5V2.27h-.75V8.78h2.09v3.9H71.42V10.82h1.33v.69h.75V10H71.42Z"/><path class="cls-3" d="M75.26,2.27V1.1h3.13V2.27h-.9V12.68H76.15V2.27Z"/><path class="cls-3" d="M82.24,1.1V7.89H80.91V2.27h-.77V8.78H81.3V10H80.14v1.56h.77v-.69h1.33v1.86H78.81V1.1Z"/><path class="cls-3" d="M82.67,12.68V1.1H86.1V11.61l-1.23,1.07ZM84,11.51h.43l.33-.36V2.27H84Z"/><rect x="54.2" width="1.11" height="13.78"/></g></g></svg>